inDegrees=no
num_controls=7
num_derivatives=13
num_iterations=132
num_multipliers=7
num_parameters=0
num_slacks=7
num_states=26
objective=0.444882
objective_accelerations=0.058459
objective_balance=0.003616
objective_effort=0.023449
objective_height=0.353872
objective_ligament=0.005487
solver_duration=1930.094994
status=Solve_Succeeded
success=true
DataType=double
version=3
OpenSimVersion=4.5
endheader
time	/jointset/ground_pelvis/pelvis_tilt/value	/jointset/ground_pelvis/pelvis_tx/value	/jointset/ground_pelvis/pelvis_ty/value	/jointset/hip_l/hip_flexion_l/value	/jointset/hip_l/hip_adduction_l/value	/jointset/hip_l/hip_rotation_l/value	/jointset/back/lumbar_extension/value	/jointset/patellofemoral_l/patellar_flexion_l/value	/jointset/knee_l/knee_flexion_l/value	/jointset/knee_l/knee_adduction_l/value	/jointset/knee_l/knee_rotation_l/value	/jointset/ankle_l/ankle_angle_l/value	/jointset/subtalar_l/subtalar_angle_l/value	/jointset/ground_pelvis/pelvis_tilt/speed	/jointset/ground_pelvis/pelvis_tx/speed	/jointset/ground_pelvis/pelvis_ty/speed	/jointset/hip_l/hip_flexion_l/speed	/jointset/hip_l/hip_adduction_l/speed	/jointset/hip_l/hip_rotation_l/speed	/jointset/back/lumbar_extension/speed	/jointset/patellofemoral_l/patellar_flexion_l/speed	/jointset/knee_l/knee_flexion_l/speed	/jointset/knee_l/knee_adduction_l/speed	/jointset/knee_l/knee_rotation_l/speed	/jointset/ankle_l/ankle_angle_l/speed	/jointset/subtalar_l/subtalar_angle_l/speed	/forceset/tau_hip_flexion_l	/forceset/tau_hip_adduction_l	/forceset/tau_hip_rotation_l	/forceset/tau_knee_flexion_l	/forceset/tau_ankle_angle_l	/forceset/tau_subtalar_angle_l	/forceset/tau_lumbar_extension	lambda_cid13_p0	lambda_cid13_p1	lambda_cid13_p2	lambda_cid13_p3	lambda_cid13_p4	lambda_cid13_p5	lambda_cid14_p0	/jointset/ground_pelvis/pelvis_tilt/accel	/jointset/ground_pelvis/pelvis_tx/accel	/jointset/ground_pelvis/pelvis_ty/accel	/jointset/hip_l/hip_flexion_l/accel	/jointset/hip_l/hip_adduction_l/accel	/jointset/hip_l/hip_rotation_l/accel	/jointset/back/lumbar_extension/accel	/jointset/patellofemoral_l/patellar_flexion_l/accel	/jointset/knee_l/knee_flexion_l/accel	/jointset/knee_l/knee_adduction_l/accel	/jointset/knee_l/knee_rotation_l/accel	/jointset/ankle_l/ankle_angle_l/accel	/jointset/subtalar_l/subtalar_angle_l/accel	gamma_cid13_p0	gamma_cid13_p1	gamma_cid13_p2	gamma_cid13_p3	gamma_cid13_p4	gamma_cid13_p5	gamma_cid14_p0
0.5	-0.3495118728602867	-0.0427300872586302	0.7567869224348024	1.119914778959008	-0.4364294349990464	-0.2209222836672315	-0.2543898391870749	0.8130590284867374	0.8130590284866479	-0.1254234452836896	-0.1590360558204736	0.1032932819049653	-0.03460354683874461	-0.7926878963572159	-0.2250678614218614	-0.5450040419700499	2.53293690499671	-0.2038834594359646	0.7505567074005788	-0.1160458645147924	2.005787959995933	2.005787959996298	0.13570378880792	-0.08703609225650411	0.4399304089636462	-0.00921722570630241	-0.1737986315560106	0.0142351005724513	-0.01116128549509414	-0.2170296095427029	0.06625447699818161	0.04969195038074732	0.1703490513988834	-11.35766599035847	-22.74591260089508	6.892280131536364	-6.598153057418626	-521.6636901842636	-67.17087080519293	-24.8687698166199	0.8337635817769515	0.6241216404444262	-0.4720151142365475	-1.387531351887421	0.7510036137766632	-0.2093294684072324	1.097821989414027	-1.281312185239784	-1.281312185239795	0.08398113222919945	0.1878291350816172	-0.5258553530613448	0.5435411549661976	-5.701561533378729e-07	-3.880562812276525e-07	2.910195127351493e-06	1.67142312061476e-07	-6.483359164260775e-07	1.103591550368638e-07	-4.668413576426188e-07
0.51	-0.357395139759854	-0.04494925968592105	0.751314489460352	1.145169816957668	-0.4384318843056451	-0.2134258811202813	-0.2554966224207079	0.8330497376392216	0.8330497376390724	-0.1240666403444147	-0.1598964816564508	0.1076651373361001	-0.03467045351327611	-0.783850642536207	-0.218744522798226	-0.5493643523033094	2.517720127024613	-0.1965907826526201	0.7486125942018579	-0.1053529449114941	1.992086226863871	1.992086226864224	0.1356581375390621	-0.0850493297290517	0.4343716648803878	-0.004173055090521756	-0.1793576352031828	0.01475127645042492	-0.01123660577769756	-0.2199586817231884	0.06613817762380607	0.05006882253916231	0.1745994914262199	-11.60488495574359	-22.85177728697131	6.89256624584339	-6.617716783941336	-525.4017320087283	-66.85999339558894	-23.94286669831138	0.9258590731597081	0.6397922953167802	-0.4004363330648273	-1.641422077945643	0.7203996033645302	-0.2040391921247881	1.048702540842545	-1.454657705186495	-1.454657705188267	-0.04863765232791018	0.2046575022872413	-0.5812239243192805	0.4832170471312651	-5.584185333647485e-07	-2.798411863480171e-07	2.971631880122471e-06	1.937047510358732e-07	-6.269717115593794e-07	1.885095710922855e-07	-4.602588593183876e-07
0.52	-0.3651866035630322	-0.04710452826257683	0.7458019739145302	1.170262152964991	-0.4403610068658601	-0.205952337094623	-0.2564977413392971	0.8528954186947845	0.8528954186945785	-0.122710251797003	-0.1607369283290145	0.1119793373287298	-0.03468724607520034	-0.7743272770793227	-0.2122870912948454	-0.5530205562443344	2.500396506729524	-0.1892181101592278	0.7459850031423263	-0.09491300150600183	1.976782340611926	1.976782340612267	0.1356205104348187	-0.08304025957319144	0.4283993212626816	0.0008055968151495817	-0.1849166388503614	0.0152674523283961	-0.01131192606026988	-0.222887753903676	0.06602187824943015	0.05044569469757377	0.1788499314535509	-11.85569393037777	-22.95797788921315	6.894009560067567	-6.671000711887547	-529.2237657912005	-66.6103539033092	-23.0183227876535	0.9709859089520334	0.6509402163934758	-0.3311938357896663	-1.808899816485895	0.7670027557862009	-0.3460250405693407	1.047226749852845	-1.601742809216409	-1.601742809216409	0.08558596515211248	0.1922906607631848	-0.6085752599509212	0.5304374129443303	-5.446188294489472e-07	-2.146619234395162e-07	2.980382525431578e-06	2.099150270350266e-07	-6.063801525714321e-07	2.619732407389918e-07	-4.535333039873593e-07
0.53	-0.3728795696212763	-0.04919464814034296	0.7402564375029798	1.195171043395293	-0.442216017491939	-0.198508120324256	-0.2573957261144359	0.8725802203070846	0.8725802203071604	-0.1213543394407918	-0.1615569923115051	0.1162318063345902	-0.03465457529264216	-0.7641566881555866	-0.2057234416954167	-0.5559654552159164	2.481042901894558	-0.1817758104276752	0.7427610359500524	-0.08473702977896473	1.959921272520908	1.959921272521105	0.1355514299720331	-0.08096477900898752	0.4220288289276956	0.005712760135652471	-0.1904708263602308	0.01572863936442711	-0.01131406464443509	-0.2256832727590675	0.06566248424938016	0.05065485195795018	0.1830462907742147	-12.18833596840836	-22.9703351246715	6.872863674514392	-6.558255771351364	-533.0200511066909	-66.23385182317213	-22.09686372132353	1.056409471399126	0.6611374020502484	-0.2580664132461534	-2.049477426400983	0.7337117100574579	-0.3255673919583801	0.9948209455565105	-1.766705207974998	-1.766705207996661	-0.05466674118604896	0.2169412281527369	-0.6611140074624362	0.4681662303595427	-5.270165748842179e-07	-1.336421906795899e-07	2.987213076350348e-06	2.304389070405986e-07	-5.840818232719544e-07	3.355139506754222e-07	-4.430382389352248e-07
